G:\RME\Thesis\opencap-processing\Data\6bca726f-ff49-494f-a035-472a00a81e0d\OpenSimData\Dynamics\walking\GRF_resultant_walking_0.mot
version=1
nRows=22
nColumns=19
inDegrees=yes
endheader 
time	ground_force_right_vx	ground_force_right_vy	ground_force_right_vz	ground_force_right_px	ground_force_right_py	ground_force_right_pz	ground_torque_right_x	ground_torque_right_y	ground_torque_right_z	ground_force_left_vx	ground_force_left_vy	ground_force_left_vz	ground_force_left_px	ground_force_left_py	ground_force_left_pz	ground_torque_left_x	ground_torque_left_y	ground_torque_left_z	
          0.00000000	         -0.56211125	        622.48477943	        -14.65334121	          0.68017395	          0.00000000	         -0.10031262	          0.00000000	         -2.30211576	          0.00000000	         53.54218864	        136.15708410	        -34.06274563	          0.99958111	          0.00000000	         -0.29446040	          0.00000000	         -0.01362846	          0.00000000	
          0.01000000	          6.36839811	        669.26663965	        -27.81566815	          0.68201704	          0.00000000	         -0.09996963	          0.00000000	         -2.41055307	          0.00000000	         53.56680541	        148.74791275	        -10.10772763	          0.99955466	          0.00000000	         -0.29378017	          0.00000000	         -0.02707351	          0.00000000	
          0.02000000	         16.77182818	        689.37958353	        -38.24208820	          0.68498414	          0.00000000	         -0.09949945	          0.00000000	         -2.45187350	          0.00000000	         57.03753494	        159.87885417	         10.45872667	          0.99987751	          0.00000000	         -0.29371589	          0.00000000	         -0.04149601	          0.00000000	
          0.03000000	         23.60240654	        687.65245308	        -42.37583855	          0.68989581	          0.00000000	         -0.09890322	          0.00000000	         -2.57574768	          0.00000000	         54.62227252	        168.95889798	         24.68412612	          1.00018765	          0.00000000	         -0.29421410	          0.00000000	         -0.05019700	          0.00000000	
          0.04000000	         19.95420982	        664.23144072	        -42.94063411	          0.69597855	          0.00000000	         -0.09808706	          0.00000000	         -2.46200877	          0.00000000	         53.93569409	        179.53819220	         35.59774005	          1.00125400	          0.00000000	         -0.29539993	          0.00000000	         -0.04851777	          0.00000000	
          0.05000000	         19.01385535	        632.89520800	        -39.81954688	          0.70336359	          0.00000000	         -0.09665774	          0.00000000	         -2.18566200	          0.00000000	         53.65358673	        194.96544165	         38.26116639	          1.00344599	          0.00000000	         -0.29765841	          0.00000000	         -0.02102215	          0.00000000	
          0.06000000	         13.63020870	        600.48257406	        -39.42282281	          0.71138213	          0.00000000	         -0.09492465	          0.00000000	         -2.00638852	          0.00000000	         47.58270349	        214.99475066	         32.36876781	          1.00630305	          0.00000000	         -0.30055418	          0.00000000	          0.06027202	          0.00000000	
          0.07000000	         11.16656406	        570.55939666	        -36.81577819	          0.71944450	          0.00000000	         -0.09327320	          0.00000000	         -1.75932492	          0.00000000	         41.61564822	        238.41083684	         23.48896824	          1.00969047	          0.00000000	         -0.30351147	          0.00000000	          0.21056117	          0.00000000	
          0.08000000	         10.80621918	        544.36942668	        -37.51820640	          0.72735698	          0.00000000	         -0.09193679	          0.00000000	         -1.51087754	          0.00000000	         31.51049299	        263.63025000	         16.29126015	          1.01327089	          0.00000000	         -0.30626432	          0.00000000	          0.40546909	          0.00000000	
          0.09000000	          9.16456433	        522.18374423	        -36.68093513	          0.73486165	          0.00000000	         -0.09097287	          0.00000000	         -1.18509989	          0.00000000	         23.79864336	        289.11622526	          7.35685584	          1.01696219	          0.00000000	         -0.30880061	          0.00000000	          0.59660746	          0.00000000	
          0.10000000	         14.82820569	        501.10103249	        -40.68858706	          0.74202068	          0.00000000	         -0.09056825	          0.00000000	         -0.76513847	          0.00000000	         11.74448581	        317.86351424	          1.79634874	          1.02181313	          0.00000000	         -0.31171723	          0.00000000	          0.78920609	          0.00000000	
          0.11000000	         16.52371331	        481.28312704	        -41.09444566	          0.74843493	          0.00000000	         -0.09068116	          0.00000000	         -0.35124256	          0.00000000	         -1.44322099	        351.65844759	          1.30311313	          1.02816895	          0.00000000	         -0.31513729	          0.00000000	          0.89179008	          0.00000000	
          0.12000000	         23.98504671	        457.71086518	        -40.37746317	          0.75435989	          0.00000000	         -0.09134327	          0.00000000	         -0.00879184	          0.00000000	        -14.48013542	        383.47774537	          2.67385813	          1.03438584	          0.00000000	         -0.31818515	          0.00000000	          0.74508012	          0.00000000	
          0.13000000	         28.38541084	        430.52454485	        -38.27698207	          0.76017930	          0.00000000	         -0.09244288	          0.00000000	          0.24550582	          0.00000000	        -26.73281330	        409.57783991	          3.58216404	          1.03995989	          0.00000000	         -0.32064822	          0.00000000	          0.29991630	          0.00000000	
          0.14000000	         33.39568633	        400.95421700	        -32.79578581	          0.76593148	          0.00000000	         -0.09392465	          0.00000000	          0.41650853	          0.00000000	        -36.32510385	        430.58640706	          6.54019131	          1.04518126	          0.00000000	         -0.32269657	          0.00000000	         -0.32461421	          0.00000000	
          0.15000000	         37.11120613	        371.84014669	        -26.16529018	          0.77139224	          0.00000000	         -0.09572259	          0.00000000	          0.47516995	          0.00000000	        -43.52537287	        450.18681587	          9.28824369	          1.05054096	          0.00000000	         -0.32442577	          0.00000000	         -1.07406076	          0.00000000	
          0.16000000	         38.56938125	        344.14177612	        -17.71781136	          0.77646932	          0.00000000	         -0.09773091	          0.00000000	          0.45217404	          0.00000000	        -49.51618022	        471.69376405	         11.99359254	          1.05628894	          0.00000000	         -0.32569545	          0.00000000	         -1.94188798	          0.00000000	
          0.17000000	         39.23350984	        316.89062127	         -8.72854892	          0.78166378	          0.00000000	         -0.09993944	          0.00000000	          0.36909991	          0.00000000	        -53.75159222	        499.33180435	         13.02912357	          1.06311451	          0.00000000	         -0.32710659	          0.00000000	         -2.88100913	          0.00000000	
          0.18000000	         36.33116362	        290.69559477	          0.53387327	          0.78706531	          0.00000000	         -0.10225301	          0.00000000	          0.24664630	          0.00000000	        -56.84911077	        527.56083247	         13.05760925	          1.06964524	          0.00000000	         -0.32848700	          0.00000000	         -3.74836000	          0.00000000	
          0.19000000	         33.82815455	        265.73608520	          8.68638151	          0.79266992	          0.00000000	         -0.10463520	          0.00000000	          0.12461040	          0.00000000	        -57.18838642	        551.92000677	         10.37707928	          1.07511616	          0.00000000	         -0.32950715	          0.00000000	         -4.25303282	          0.00000000	
          0.20000000	         28.93799916	        244.07076945	         14.98144668	          0.79813141	          0.00000000	         -0.10694242	          0.00000000	          0.02103582	          0.00000000	        -56.54779952	        573.21550063	          8.28990893	          1.07977231	          0.00000000	         -0.33014378	          0.00000000	         -4.36531264	          0.00000000	
          0.21000000	         25.77298010	        225.63214754	         19.61471726	          0.80298741	          0.00000000	         -0.10907641	          0.00000000	         -0.04121857	          0.00000000	        -56.01716070	        590.65749562	          4.42969493	          1.08362280	          0.00000000	         -0.33055840	          0.00000000	         -4.13004864	          0.00000000	
